<svg xmlns="http://www.w3.org/2000/svg" width="192" height="170" viewBox="0 0 192 170"><defs><linearGradient id="lwl3a" x1="-.02" x2="65.98" y1="72" y2="71.98" gradientUnits="userSpaceOnUse"><stop offset="0" stop-color="#2d0397"/><stop offset="1" stop-color="#f962a9"/></linearGradient><linearGradient id="lwl3b" x1="125.98" x2="191.98" y1="72" y2="71.98" gradientUnits="userSpaceOnUse"><stop offset="0" stop-color="#2d0397"/><stop offset="1" stop-color="#f962a9"/></linearGradient><linearGradient id="lwl3c" x1="60.98" x2="126.98" y1="137" y2="136.98" gradientUnits="userSpaceOnUse"><stop offset="0" stop-color="#2d0397"/><stop offset="1" stop-color="#f962a9"/></linearGradient><mask id="lwl3e" width="2" height="2" x="-1" y="-1"><path fill="#fff" d="M27 5h134v134H27z"/><path d="M30.36 64.928L86.93 8.36c3.905-3.905 10.237-3.905 14.142 0l56.569 56.568c3.905 3.906 3.905 10.238 0 14.142l-56.569 56.57c-3.905 3.905-10.237 3.905-14.142 0L30.36 79.07c-3.905-3.904-3.905-10.236 0-14.142z"/></mask><filter id="lwl3d" width="186" height="194" x="1" y="-21" filterUnits="userSpaceOnUse"><feOffset dy="8" in="SourceGraphic" result="FeOffset1086Out"/><feGaussianBlur in="FeOffset1086Out" result="FeGaussianBlur1087Out" stdDeviation="6.4 6.4"/></filter><linearGradient id="lwl3f" x1="27.43" x2="160.43" y1="71.57" y2="72.43" gradientUnits="userSpaceOnUse"><stop offset="0" stop-color="#2d0397"/><stop offset="1" stop-color="#f962a9"/></linearGradient></defs><g><g opacity=".1"><path fill="#12a9ff" d="M1.434 68.485l28.052-28.051a4.96 4.96 0 0 1 7.013 0L64.55 68.485a4.959 4.959 0 0 1 0 7.013L36.5 103.55a4.96 4.96 0 0 1-7.013 0L1.434 75.498a4.959 4.959 0 0 1 0-7.013z"/><path fill="url(#lwl3a)" d="M1.434 68.485l28.052-28.051a4.96 4.96 0 0 1 7.013 0L64.55 68.485a4.959 4.959 0 0 1 0 7.013L36.5 103.55a4.96 4.96 0 0 1-7.013 0L1.434 75.498a4.959 4.959 0 0 1 0-7.013z"/></g><g opacity=".1"><path fill="#12a9ff" d="M127.434 68.485l28.052-28.051a4.96 4.96 0 0 1 7.013 0l28.051 28.051a4.959 4.959 0 0 1 0 7.013L162.5 103.55a4.96 4.96 0 0 1-7.013 0l-28.052-28.052a4.959 4.959 0 0 1 0-7.013z"/><path fill="url(#lwl3b)" d="M127.434 68.485l28.052-28.051a4.96 4.96 0 0 1 7.013 0l28.051 28.051a4.959 4.959 0 0 1 0 7.013L162.5 103.55a4.96 4.96 0 0 1-7.013 0l-28.052-28.052a4.959 4.959 0 0 1 0-7.013z"/></g><g opacity=".1"><path fill="#12a9ff" d="M62.434 133.486l28.052-28.053a4.96 4.96 0 0 1 7.013 0l28.052 28.053a4.959 4.959 0 0 1 0 7.013L97.499 168.55a4.96 4.96 0 0 1-7.013 0L62.434 140.5a4.959 4.959 0 0 1 0-7.013z"/><path fill="url(#lwl3c)" d="M62.434 133.486l28.052-28.053a4.96 4.96 0 0 1 7.013 0l28.052 28.053a4.959 4.959 0 0 1 0 7.013L97.499 168.55a4.96 4.96 0 0 1-7.013 0L62.434 140.5a4.959 4.959 0 0 1 0-7.013z"/></g><g><g filter="url(#lwl3d)"><path fill="none" d="M30.36 64.928L86.93 8.36c3.905-3.905 10.237-3.905 14.142 0l56.569 56.568c3.905 3.906 3.905 10.238 0 14.142l-56.569 56.57c-3.905 3.905-10.237 3.905-14.142 0L30.36 79.07c-3.905-3.904-3.905-10.236 0-14.142z" mask="url(&quot;#lwl3e&quot;)"/><path fill="#7900ff" fill-opacity=".3" d="M30.36 64.928L86.93 8.36c3.905-3.905 10.237-3.905 14.142 0l56.569 56.568c3.905 3.906 3.905 10.238 0 14.142l-56.569 56.57c-3.905 3.905-10.237 3.905-14.142 0L30.36 79.07c-3.905-3.904-3.905-10.236 0-14.142z"/></g><path fill="#12a9ff" d="M30.36 64.928L86.93 8.36c3.905-3.905 10.237-3.905 14.142 0l56.569 56.568c3.905 3.906 3.905 10.238 0 14.142l-56.569 56.57c-3.905 3.905-10.237 3.905-14.142 0L30.36 79.07c-3.905-3.904-3.905-10.236 0-14.142z"/><path fill="url(#lwl3f)" d="M30.36 64.928L86.93 8.36c3.905-3.905 10.237-3.905 14.142 0l56.569 56.568c3.905 3.906 3.905 10.238 0 14.142l-56.569 56.57c-3.905 3.905-10.237 3.905-14.142 0L30.36 79.07c-3.905-3.904-3.905-10.236 0-14.142z"/></g></g></svg>