<?xml version="1.0" encoding="iso-8859-1"?>
<!-- Generator: Adobe Illustrator 16.0.0, SVG Export Plug-In . SVG Version: 6.00 Build 0)  -->
<!DOCTYPE svg PUBLIC "-//W3C//DTD SVG 1.1//EN" "http://www.w3.org/Graphics/SVG/1.1/DTD/svg11.dtd">
<svg version="1.1" id="Capa_1" xmlns="http://www.w3.org/2000/svg" xmlns:xlink="http://www.w3.org/1999/xlink" x="0px" y="0px"
	 width="70px" height="70px" viewBox="0 0 36.625 36.625" style="enable-background:new 0 0 36.625 36.625;"
	 xml:space="preserve">
<g>
	<path d="M35.622,31.49h-1.569c0.104-0.158,0.182-0.338,0.182-0.543V12.28c0-0.552-0.447-1-1-1h-5.889
		c-0.472-4.569-4.343-8.146-9.035-8.146S9.748,6.71,9.276,11.28H3.388c-0.553,0-1,0.448-1,1v18.667c0,0.205,0.076,0.385,0.182,0.543
		H1c-0.553,0-1,0.447-1,1s0.447,1,1,1h34.625c0.553,0,1-0.447,1-1C36.623,31.938,36.174,31.49,35.622,31.49z M18.309,4.137
		c4.361,0,7.919,3.475,8.068,7.8c-0.039,0.108-0.068,0.223-0.068,0.345c0,0.107,0.029,0.205,0.062,0.302
		c-0.246,6.004-6.494,13.452-8.069,15.233c-1.589-1.713-7.817-8.836-8.054-15.228c0.033-0.099,0.063-0.199,0.063-0.308
		c0-0.123-0.028-0.237-0.069-0.345C10.39,7.61,13.948,4.137,18.309,4.137z M4.386,13.28h4.907c0.69,7.479,8.32,15.28,8.66,15.624
		c0.094,0.096,0.222,0.148,0.354,0.148c0.002,0,0.005,0,0.007,0c0.137-0.004,0.266-0.061,0.357-0.158
		c0.339-0.363,7.919-8.547,8.646-15.614h4.912v16.667H4.384V13.28H4.386z M24.523,15.803c0.117,0.073,0.151,0.227,0.078,0.344
		c-0.365,0.587-0.812,1.119-1.326,1.581c-0.047,0.043-0.106,0.064-0.166,0.064c-0.067,0-0.137-0.028-0.188-0.083
		c-0.092-0.103-0.084-0.261,0.02-0.353c0.479-0.431,0.896-0.927,1.236-1.474C24.25,15.765,24.407,15.729,24.523,15.803z
		 M23.581,7.74c-0.09-0.104-0.076-0.263,0.028-0.353c0.104-0.089,0.263-0.077,0.353,0.028c0.447,0.526,0.82,1.112,1.104,1.741
		c0.058,0.126,0.002,0.274-0.125,0.331c-0.032,0.015-0.067,0.022-0.104,0.022c-0.096,0-0.188-0.055-0.229-0.146
		C24.346,8.777,23.999,8.231,23.581,7.74z M25.227,12.22c0-0.34-0.024-0.679-0.071-1.009c-0.021-0.137,0.073-0.264,0.211-0.284
		c0.146-0.021,0.264,0.075,0.282,0.211c0.052,0.354,0.078,0.717,0.078,1.081c0,0.695-0.098,1.382-0.285,2.042
		c-0.03,0.11-0.133,0.181-0.239,0.181c-0.022,0-0.047-0.003-0.069-0.01c-0.132-0.038-0.21-0.176-0.171-0.309
		C25.137,13.51,25.227,12.869,25.227,12.22z M20.249,5.312c0.041-0.132,0.183-0.205,0.313-0.163
		c0.658,0.209,1.283,0.511,1.855,0.895c0.115,0.077,0.146,0.232,0.07,0.347c-0.051,0.072-0.129,0.111-0.209,0.111
		c-0.049,0-0.098-0.014-0.139-0.042c-0.537-0.358-1.119-0.639-1.732-0.834C20.28,5.584,20.206,5.444,20.249,5.312z M14.063,17.681
		c0.109,0.085,0.129,0.242,0.044,0.351c-0.049,0.063-0.123,0.097-0.196,0.097c-0.055,0-0.108-0.017-0.153-0.053
		c-0.546-0.424-1.029-0.922-1.438-1.479c-0.08-0.111-0.057-0.268,0.055-0.349c0.109-0.083,0.268-0.059,0.351,0.054
		C13.103,16.819,13.554,17.285,14.063,17.681z M17.823,19.375c-0.014,0.129-0.121,0.226-0.248,0.226c-0.009,0-0.018,0-0.025-0.002
		c-0.689-0.07-1.363-0.236-2.004-0.494c-0.127-0.051-0.188-0.197-0.137-0.325c0.051-0.129,0.194-0.189,0.324-0.139
		c0.596,0.24,1.225,0.395,1.866,0.461C17.737,19.113,17.836,19.236,17.823,19.375z M21.684,18.549
		c0.062,0.123,0.01,0.272-0.113,0.334c-0.62,0.305-1.28,0.52-1.961,0.641c-0.015,0.002-0.03,0.004-0.044,0.004
		c-0.119,0-0.225-0.086-0.246-0.207c-0.023-0.137,0.066-0.266,0.202-0.291c0.636-0.111,1.25-0.312,1.829-0.596
		C21.475,18.375,21.622,18.424,21.684,18.549z M11.346,14.777c-0.237-0.645-0.383-1.323-0.436-2.016
		c-0.011-0.138,0.094-0.258,0.23-0.268c0.128-0.018,0.258,0.093,0.268,0.231c0.049,0.647,0.186,1.28,0.405,1.881
		c0.048,0.129-0.019,0.273-0.147,0.321c-0.028,0.01-0.059,0.015-0.086,0.015C11.479,14.94,11.383,14.878,11.346,14.777z
		 M11.047,10.705c0.141-0.677,0.375-1.33,0.699-1.942c0.064-0.123,0.215-0.167,0.338-0.104c0.121,0.064,0.168,0.216,0.104,0.338
		c-0.301,0.57-0.52,1.179-0.65,1.81c-0.023,0.118-0.129,0.199-0.244,0.199c-0.018,0-0.033-0.001-0.051-0.005
		C11.107,10.972,11.02,10.838,11.047,10.705z M12.959,7.442c-0.101-0.096-0.104-0.254-0.008-0.354c0.479-0.5,1.022-0.93,1.619-1.278
		c0.115-0.07,0.271-0.029,0.342,0.09c0.068,0.119,0.028,0.272-0.09,0.342c-0.557,0.325-1.063,0.726-1.511,1.192
		c-0.049,0.051-0.114,0.077-0.181,0.077C13.071,7.513,13.008,7.488,12.959,7.442z M16.297,5.333
		c-0.033-0.134,0.048-0.27,0.182-0.304c0.596-0.151,1.21-0.228,1.83-0.228l0.221,0.003c0.137,0.004,0.246,0.119,0.242,0.257
		s-0.128,0.227-0.257,0.243l-0.206-0.003c-0.578,0-1.152,0.071-1.707,0.212c-0.021,0.005-0.041,0.008-0.062,0.008
		C16.428,5.521,16.327,5.446,16.297,5.333z M18.273,11.578h-0.577v-1.28h0.577c0.338,0,0.57,0.021,0.7,0.063
		c0.13,0.041,0.23,0.111,0.3,0.209c0.069,0.098,0.103,0.216,0.103,0.354c0,0.133-0.035,0.251-0.106,0.353
		c-0.073,0.102-0.183,0.177-0.325,0.227C18.797,11.553,18.575,11.578,18.273,11.578z M17.715,13.77
		c-0.01-0.028-0.016-0.122-0.02-0.282v-1.137h0.682c0.298,0,0.519,0.028,0.664,0.083c0.146,0.055,0.256,0.136,0.326,0.244
		c0.074,0.109,0.109,0.24,0.109,0.396c0,0.183-0.051,0.34-0.152,0.47c-0.104,0.131-0.229,0.217-0.375,0.258
		c-0.146,0.042-0.332,0.062-0.555,0.062h-0.383c-0.127,0-0.206-0.008-0.235-0.021C17.749,13.83,17.729,13.805,17.715,13.77z
		 M18.309,18.351c3.386,0,6.13-2.745,6.13-6.131c0-3.386-2.744-6.131-6.13-6.131c-3.387,0-6.131,2.745-6.131,6.131
		C12.178,15.604,14.922,18.351,18.309,18.351z M15.777,13.977h0.207c0.14,0,0.231-0.012,0.281-0.036
		c0.05-0.023,0.082-0.058,0.103-0.102c0.021-0.043,0.03-0.142,0.03-0.295v-2.929c0-0.155-0.01-0.255-0.03-0.298
		c-0.021-0.042-0.053-0.076-0.103-0.102c-0.05-0.024-0.144-0.037-0.281-0.037h-0.207V9.451h1.356V8.585h0.89v0.865h0.572V8.585h0.89
		v0.927c0.131,0.025,0.25,0.056,0.352,0.097c0.263,0.107,0.463,0.26,0.604,0.459c0.141,0.2,0.211,0.419,0.211,0.658
		c0,0.173-0.037,0.337-0.111,0.493c-0.074,0.155-0.182,0.293-0.32,0.412c-0.141,0.119-0.324,0.218-0.555,0.295
		c0.246,0.062,0.436,0.131,0.564,0.207c0.188,0.105,0.338,0.253,0.447,0.443c0.11,0.189,0.166,0.401,0.166,0.634
		c0,0.279-0.084,0.536-0.253,0.77c-0.168,0.235-0.405,0.414-0.713,0.537c-0.112,0.044-0.242,0.081-0.393,0.11v0.939h-0.89v-0.865
		c-0.022,0-0.043,0-0.067,0h-0.505v0.865h-0.89v-0.865h-1.356V13.977z"/>
</g>
<g>
</g>
<g>
</g>
<g>
</g>
<g>
</g>
<g>
</g>
<g>
</g>
<g>
</g>
<g>
</g>
<g>
</g>
<g>
</g>
<g>
</g>
<g>
</g>
<g>
</g>
<g>
</g>
<g>
</g>
</svg>
