<svg xmlns="http://www.w3.org/2000/svg" width="71" height="71" viewBox="0 0 71 71"><g><g><path d="M49.7 24.85v4.733c0 .654-.53 1.183-1.183 1.183H22.483a1.183 1.183 0 0 1-1.183-1.183V24.85c0-5.182 3.721-9.506 8.631-10.453a8.255 8.255 0 0 1-2.714-6.114C27.217 3.716 30.932 0 35.5 0s8.283 3.716 8.283 8.283a8.255 8.255 0 0 1-2.714 6.114c4.91.947 8.631 5.27 8.631 10.452zM35.5 14.2a5.923 5.923 0 0 0 5.917-5.917A5.923 5.923 0 0 0 35.5 2.366a5.923 5.923 0 0 0-5.917 5.917A5.923 5.923 0 0 0 35.5 14.2zm11.833 10.65c0-4.567-3.715-8.284-8.283-8.284h-7.1c-4.568 0-8.283 3.717-8.283 8.284v3.55h23.666zM28.4 65.082v4.733c0 .655-.53 1.184-1.183 1.184H1.183A1.183 1.183 0 0 1 0 69.816v-4.733c0-5.182 3.722-9.506 8.631-10.452a8.257 8.257 0 0 1-2.714-6.115c0-4.566 3.715-8.283 8.283-8.283s8.283 3.717 8.283 8.283a8.257 8.257 0 0 1-2.714 6.115c4.91.946 8.63 5.27 8.63 10.452zm-14.2-10.65a5.923 5.923 0 0 0 5.917-5.917A5.923 5.923 0 0 0 14.2 42.6a5.923 5.923 0 0 0-5.917 5.916 5.923 5.923 0 0 0 5.917 5.917zm11.833 10.65c0-4.567-3.715-8.284-8.283-8.284h-7.1c-4.568 0-8.283 3.717-8.283 8.284v3.55h23.666zm44.967 0v4.733c0 .655-.53 1.184-1.183 1.184H43.783a1.183 1.183 0 0 1-1.183-1.184v-4.733c0-5.182 3.722-9.506 8.631-10.452a8.257 8.257 0 0 1-2.714-6.115c0-4.566 3.715-8.283 8.283-8.283s8.283 3.717 8.283 8.283a8.257 8.257 0 0 1-2.714 6.115C67.279 55.577 71 59.9 71 65.083zm-14.2-10.65a5.923 5.923 0 0 0 5.917-5.917A5.923 5.923 0 0 0 56.8 42.6a5.923 5.923 0 0 0-5.917 5.916 5.923 5.923 0 0 0 5.917 5.917zm11.833 10.65c0-4.567-3.715-8.284-8.283-8.284h-7.1c-4.568 0-8.283 3.717-8.283 8.284v3.55h23.666zM7.303 40.092l-2.35.282a31 31 0 0 1-.195-2.453l2.364-.093c.03.753.09 1.515.18 2.264zM7.3 33.29c-.089.747-.149 1.508-.179 2.265l-2.364-.092c.03-.82.097-1.645.193-2.452zm10.983-19.198c-.598.454-1.186.942-1.75 1.448l-1.581-1.76c.611-.55 1.25-1.078 1.896-1.57zm-8.49 10.502a28.32 28.32 0 0 0-.885 2.09l-2.215-.83c.289-.769.61-1.531.959-2.27zm-1.598 4.248a28.046 28.046 0 0 0-.537 2.206l-2.321-.467c.162-.803.357-1.608.582-2.39zm6.71-11.715a28.692 28.692 0 0 0-1.498 1.708l-1.84-1.489a31.377 31.377 0 0 1 1.623-1.848zm7.193-5.49a27.53 27.53 0 0 0-1.955 1.152l-1.283-1.99a30.413 30.413 0 0 1 2.123-1.249zM12.05 20.657c-.427.622-.834 1.27-1.208 1.923L8.79 21.402c.406-.708.846-1.409 1.309-2.085zm20.082 44.23l-.274 2.35a29.86 29.86 0 0 1-2.433-.386l.467-2.321a27.91 27.91 0 0 0 2.24.356zm9.518 1.95a31.17 31.17 0 0 1-2.428.392l-.286-2.35a28.871 28.871 0 0 0 2.244-.363zm-4.881.587a38.4 38.4 0 0 1-1.267.028c-.402 0-.8-.007-1.193-.024l.093-2.364c.751.03 1.516.026 2.272-.004zm21.046-51.917l-1.718 1.627a28.939 28.939 0 0 0-1.627-1.583l1.581-1.761c.61.548 1.203 1.125 1.764 1.717zm3.089 3.82l-1.951 1.338a29.1 29.1 0 0 0-1.358-1.823l1.84-1.488a31.832 31.832 0 0 1 1.469 1.973zm5.362 17.354c0 .418-.009.832-.025 1.244l-2.365-.092a28.634 28.634 0 0 0 0-2.273l2.365-.093c.016.403.025.809.025 1.214zM63.35 23.59l-2.14 1.01a28.615 28.615 0 0 0-1.05-2.014l2.054-1.178c.406.71.788 1.443 1.136 2.182zm1.73 4.603l-2.276.653a28.654 28.654 0 0 0-.712-2.155l2.215-.833c.288.764.548 1.55.773 2.335zm.968 4.823l-2.35.279a27.823 27.823 0 0 0-.358-2.244l2.32-.466c.162.804.292 1.621.388 2.431zM54.16 12.218L52.723 14.1c-.602-.46-1.227-.9-1.859-1.306l1.282-1.99c.685.44 1.362.915 2.014 1.414zm-4.135-2.663l-1.119 2.085a28.21 28.21 0 0 0-2.043-.993l.948-2.168c.748.326 1.494.688 2.214 1.076z"/></g></g></svg>